<svg width="1024" height="1024" viewBox="0 0 1024 1024" fill="none" xmlns="http://www.w3.org/2000/svg">
<rect width="1024" height="1024" fill="white"/>
<path d="M499.631 241.215V831.05C497.916 830.993 496.109 830.935 494.215 830.877C477.855 830.37 455.003 829.817 429.017 829.63C377.281 829.256 312.254 830.32 261.308 836.278C183.311 845.399 76.0653 873.307 28.0091 886.469C27.9389 886.488 27.9067 886.489 27.9034 886.489C27.8975 886.489 27.8924 886.489 27.8828 886.487C27.8558 886.481 27.7876 886.459 27.7094 886.4C27.6704 886.37 27.6457 886.344 27.6316 886.328C27.6313 886.32 27.6311 886.311 27.6311 886.3V271.816C27.6311 267.14 30.7228 263.402 34.8775 262.432C81.1312 251.632 186.484 228.55 260.822 223.468C334.933 218.401 441.45 226.901 491.074 231.603C495.836 232.054 499.631 236.081 499.631 241.215Z" stroke="#767576" stroke-width="40"/>
<path d="M516.369 198.82V819.686C504.17 814.788 488.664 808.749 471.286 802.407C429.736 787.245 376.257 769.899 331.537 762.725C268.314 752.583 177.145 755.352 136.845 757.242C136.75 757.246 136.704 757.233 136.67 757.22C136.621 757.201 136.56 757.166 136.503 757.112C136.455 757.066 136.433 757.03 136.427 757.018C136.427 757.016 136.427 757.014 136.427 757.011C136.426 757.004 136.426 756.996 136.426 756.985V131.986C174.815 129.022 261.967 124.045 320.759 133.379C361.838 139.9 413.314 157.309 455.382 173.57C476.227 181.627 494.417 189.266 507.39 194.888C510.751 196.345 513.759 197.665 516.369 198.82Z" fill="white" stroke="#767576" stroke-width="40"/>
<path d="M524.97 240.417L538.029 830.821C539.156 830.774 540.324 830.728 541.53 830.68C556.586 830.089 577.694 829.423 601.939 829.123C650.224 828.525 711.728 829.366 762.692 835.325C840.689 844.446 947.935 872.354 995.991 885.516C996.061 885.535 996.093 885.536 996.097 885.536C996.102 885.536 996.108 885.536 996.117 885.534C996.144 885.529 996.212 885.506 996.291 885.447C996.33 885.418 996.354 885.392 996.368 885.375C996.369 885.367 996.369 885.358 996.369 885.347V270.863C996.369 266.187 993.277 262.449 989.123 261.479C942.869 250.679 837.516 227.598 763.178 222.515C689.357 217.468 583.378 225.882 533.499 230.596C528.678 231.052 524.855 235.178 524.97 240.417Z" stroke="#767576" stroke-width="40"/>
<path d="M524.654 202.445L538.229 820.921C548.756 816.399 561.762 811.002 576.344 805.352C614.416 790.598 664.347 773.672 709.201 766.477C772.424 756.335 863.593 759.103 903.893 760.993C903.988 760.997 904.034 760.984 904.068 760.971C904.116 760.953 904.178 760.917 904.235 760.863C904.283 760.818 904.304 760.781 904.311 760.77C904.311 760.768 904.311 760.765 904.311 760.762C904.312 760.756 904.312 760.747 904.312 760.736V135.738C865.923 132.773 778.771 127.797 719.978 137.13C678.899 143.652 627.424 161.06 585.356 177.321C564.511 185.379 546.32 193.018 533.348 198.64C530.109 200.044 527.198 201.32 524.654 202.445Z" fill="white" stroke="#767576" stroke-width="40"/>
</svg>
