<svg width="1024" height="1024" viewBox="0 0 1024 1024" fill="none" xmlns="http://www.w3.org/2000/svg">
<path fill-rule="evenodd" clip-rule="evenodd" d="M116 224.529C81.0839 231.377 50.1238 238.333 30.3297 242.955C16.926 246.085 7.63086 258.051 7.63086 271.816V886.3C7.63086 899.629 20.4364 909.279 33.2921 905.758C81.4365 892.572 187.327 865.065 263.631 856.142C331.639 848.189 426.552 849.104 479.631 850.471C504.063 851.1 519.631 851.825 519.631 851.825V811.786V241.215C519.631 226.501 508.99 214.074 494.615 211.895C495.525 212.617 496 213 496 213V791C496 791 489.935 788.219 479.631 783.683V810.458C465.3 810.094 448.055 809.766 429.162 809.63C377.274 809.255 311.221 810.305 258.985 816.413C191.052 824.357 102.112 846.101 47.6309 860.482V280.007C65.4916 275.905 89.4508 270.615 116 265.308V224.529Z" fill="#6700CD"/>
<path d="M516.369 198.82V819.686C504.169 814.788 488.664 808.749 471.286 802.407C429.736 787.245 376.257 769.899 331.536 762.725C268.313 752.583 177.144 755.352 136.844 757.242C136.75 757.246 136.703 757.233 136.67 757.22C136.621 757.201 136.56 757.166 136.503 757.112C136.454 757.066 136.433 757.03 136.427 757.018C136.426 757.016 136.426 757.014 136.426 757.011C136.426 757.004 136.425 756.996 136.425 756.985V131.986C174.815 129.022 261.966 124.045 320.759 133.379C361.838 139.9 413.313 157.309 455.381 173.57C476.226 181.627 494.417 189.266 507.389 194.888C510.75 196.345 513.758 197.665 516.369 198.82Z" stroke="#6700CD" stroke-width="40"/>
<path fill-rule="evenodd" clip-rule="evenodd" d="M913.369 224.529C948.285 231.377 979.245 238.333 999.039 242.955C1012.44 246.085 1021.74 258.051 1021.74 271.816V886.3C1021.74 899.629 1008.93 909.279 996.077 905.758C947.932 892.572 842.041 865.065 765.738 856.142C697.73 848.189 602.816 849.104 549.738 850.471C525.306 851.1 509.738 851.825 509.738 851.825V811.786V241.215C509.738 226.501 520.379 214.074 534.754 211.895C533.844 212.617 533.369 213 533.369 213V791C533.369 791 539.434 788.219 549.738 783.683V810.458C564.068 810.094 581.314 809.766 600.207 809.63C652.095 809.255 718.148 810.305 770.384 816.413C838.317 824.357 927.257 846.101 981.738 860.482V280.007C963.877 275.905 939.918 270.615 913.369 265.308V224.529Z" fill="#6700CD"/>
<path d="M513 198.82V819.686C525.199 814.788 540.705 808.749 558.083 802.407C599.633 787.245 653.112 769.899 697.832 762.725C761.055 752.583 852.225 755.352 892.524 757.242C892.619 757.246 892.665 757.233 892.699 757.22C892.748 757.201 892.809 757.166 892.866 757.112C892.914 757.066 892.936 757.03 892.942 757.018C892.942 757.016 892.942 757.014 892.943 757.011C892.943 757.004 892.943 756.996 892.943 756.985V131.986C854.554 129.022 767.402 124.045 708.61 133.379C667.531 139.9 616.055 157.309 573.988 173.57C553.143 181.627 534.952 189.266 521.979 194.888C518.618 196.345 515.61 197.665 513 198.82Z" stroke="#6700CD" stroke-width="40"/>
</svg>
